<?xml version="1.0" encoding="utf-8"?>
<!-- Generator: Adobe Illustrator 25.4.1, SVG Export Plug-In . SVG Version: 6.00 Build 0)  -->
<svg version="1.1" id="Layer_1" xmlns="http://www.w3.org/2000/svg" xmlns:xlink="http://www.w3.org/1999/xlink" x="0px" y="0px"
	 viewBox="0 0 792 612" style="enable-background:new 0 0 792 612;" xml:space="preserve">
<style type="text/css">
	.st0{fill:#084872;}
	.st1{fill:#11999A;}
	.st2{display:none;fill:#084872;}
	.st3{display:none;fill:#11999A;}
	.st4{fill:none;}
	.st5{display:none;}
	.st6{font-family:'Montserrat-Regular';}
	.st7{font-size:17px;}
</style>
<path class="st0" d="M224.32,356.02v-17.27c3.13,2.63,6.53,4.59,10.2,5.91c3.67,1.31,7.38,1.97,11.12,1.97
	c2.19,0,4.11-0.2,5.75-0.59c1.64-0.4,3-0.95,4.1-1.65c1.1-0.7,1.92-1.53,2.46-2.48c0.54-0.95,0.81-1.99,0.81-3.1
	c0-1.51-0.43-2.86-1.29-4.05c-0.87-1.19-2.05-2.28-3.54-3.29c-1.49-1.01-3.27-1.98-5.32-2.92c-2.05-0.94-4.27-1.89-6.64-2.86
	c-6.05-2.52-10.56-5.6-13.53-9.24c-2.97-3.63-4.45-8.02-4.45-13.17c0-4.03,0.81-7.5,2.43-10.4c1.62-2.9,3.82-5.28,6.62-7.15
	c2.78-1.87,6.02-3.25,9.69-4.13c3.67-0.88,7.56-1.33,11.66-1.33c4.03,0,7.6,0.25,10.72,0.73c3.11,0.48,5.98,1.23,8.61,2.24v16.15
	c-1.3-0.9-2.71-1.69-4.24-2.38c-1.53-0.68-3.1-1.25-4.72-1.7c-1.62-0.45-3.23-0.79-4.83-1c-1.6-0.22-3.12-0.32-4.56-0.32
	c-1.98,0-3.78,0.19-5.4,0.57c-1.62,0.38-2.99,0.91-4.1,1.59c-1.12,0.68-1.98,1.5-2.59,2.46c-0.61,0.95-0.92,2.02-0.92,3.21
	c0,1.29,0.34,2.46,1.03,3.48c0.68,1.02,1.65,2,2.92,2.91c1.26,0.92,2.79,1.82,4.59,2.7c1.8,0.88,3.84,1.79,6.1,2.72
	c3.09,1.3,5.88,2.68,8.34,4.13c2.46,1.46,4.58,3.1,6.35,4.94c1.76,1.84,3.11,3.93,4.05,6.29c0.93,2.36,1.4,5.1,1.4,8.23
	c0,4.32-0.82,7.95-2.46,10.88c-1.64,2.93-3.86,5.31-6.67,7.13c-2.8,1.82-6.07,3.12-9.8,3.91c-3.72,0.79-7.66,1.19-11.79,1.19
	c-4.25,0-8.29-0.36-12.12-1.08C230.44,358.54,227.13,357.46,224.32,356.02"/>
<polygon class="st0" points="338.76,348.11 292.32,348.11 292.32,270.68 336.97,270.68 336.97,284.88 309.76,284.88 309.76,302.11 
	335.08,302.11 335.08,316.25 309.76,316.25 309.76,333.96 338.76,333.96 "/>
<path class="st0" d="M420.82,348.11h-17.6l-31.91-48.65c-1.87-2.84-3.17-4.99-3.89-6.43h-0.21c0.29,2.74,0.43,6.92,0.43,12.53v42.54
	h-16.47v-77.43h18.79l30.72,47.14c1.41,2.13,2.7,4.23,3.89,6.32h0.21c-0.28-1.8-0.43-5.34-0.43-10.63v-42.82h16.47V348.11z"/>
<path class="st0" d="M438.53,348.11v-77.42h27.43c27.5,0,41.25,12.58,41.25,37.74c0,12.06-3.75,21.68-11.26,28.88
	c-7.51,7.2-17.5,10.8-29.99,10.8H438.53z M455.97,284.88v49.08h8.64c7.56,0,13.49-2.27,17.79-6.8s6.45-10.71,6.45-18.52
	c0-7.38-2.13-13.18-6.4-17.41c-4.27-4.23-10.25-6.34-17.95-6.34H455.97z"/>
<path class="st0" d="M520.06,348.11v-77.42h27.42c27.5,0,41.25,12.58,41.25,37.74c0,12.06-3.75,21.68-11.26,28.88
	c-7.51,7.2-17.51,10.8-29.99,10.8H520.06z M537.5,284.88v49.08h8.64c7.56,0,13.49-2.27,17.79-6.8s6.45-10.71,6.45-18.52
	c0-7.38-2.13-13.18-6.4-17.41c-4.27-4.23-10.25-6.34-17.95-6.34H537.5z"/>
<path class="st1" d="M226.01,369.02l0.39-0.65c0.82,0.85,2.33,1.5,3.93,1.5c2.38,0,3.44-1.04,3.44-2.33c0-3.58-7.44-1.43-7.44-5.82
	c0-1.69,1.29-3.17,4.22-3.17c1.31,0,2.67,0.41,3.59,1.07l-0.33,0.7c-0.98-0.68-2.19-1.01-3.27-1.01c-2.32,0-3.36,1.07-3.36,2.38
	c0,3.58,7.44,1.46,7.44,5.79c0,1.69-1.35,3.15-4.29,3.15C228.58,370.64,226.87,369.97,226.01,369.02"/>
<path class="st1" d="M236.34,366.11c0-2.64,1.89-4.52,4.44-4.52c2.55,0,4.44,1.88,4.44,4.52c0,2.64-1.89,4.51-4.44,4.51
	C238.23,370.62,236.34,368.75,236.34,366.11 M244.36,366.11c0-2.23-1.53-3.74-3.57-3.74c-2.05,0-3.58,1.51-3.58,3.74
	c0,2.23,1.53,3.74,3.58,3.74C242.83,369.85,244.36,368.34,244.36,366.11"/>
<path class="st1" d="M255.68,361.66v8.89h-0.82v-1.91c-0.58,1.24-1.79,1.97-3.35,1.97c-2.26,0-3.71-1.28-3.71-3.76v-5.19h0.85v5.13
	c0,2.01,1.07,3.06,2.93,3.06c2.01,0,3.25-1.34,3.25-3.45v-4.73H255.68z"/>
<path class="st1" d="M263.72,369.99c-0.45,0.42-1.16,0.63-1.82,0.63c-1.57,0-2.42-0.92-2.42-2.42v-5.81h-1.63v-0.73h1.63v-1.94h0.85
	v1.94h2.83v0.73h-2.83v5.72c0,1.14,0.57,1.77,1.65,1.77c0.53,0,1.02-0.17,1.38-0.49L263.72,369.99z"/>
<path class="st1" d="M274.01,365.36v5.19h-0.85v-5.13c0-2.01-1.07-3.06-2.88-3.06c-2.09,0-3.37,1.34-3.37,3.45v4.73h-0.85v-12.63
	h0.85v5.6c0.61-1.21,1.84-1.92,3.49-1.92C272.56,361.6,274.01,362.87,274.01,365.36"/>
<path class="st1" d="M284.99,366.31h-7.64c0.08,2.11,1.64,3.54,3.76,3.54c1.13,0,2.16-0.41,2.84-1.24l0.5,0.56
	c-0.78,0.95-2.01,1.44-3.35,1.44c-2.69,0-4.58-1.87-4.58-4.51c0-2.64,1.82-4.51,4.25-4.51c2.43,0,4.24,1.84,4.24,4.47
	C285,366.14,284.99,366.23,284.99,366.31 M277.36,365.65h6.81c-0.12-1.92-1.51-3.3-3.4-3.3S277.5,363.71,277.36,365.65"/>
<path class="st1" d="M294.05,364.91v5.64h-0.82v-1.58c-0.56,1.02-1.65,1.65-3.2,1.65c-1.99,0-3.2-1.02-3.2-2.53
	c0-1.35,0.85-2.49,3.32-2.49h3.05v-0.72c0-1.65-0.9-2.54-2.64-2.54c-1.23,0-2.33,0.46-3.06,1.12l-0.43-0.61
	c0.88-0.79,2.18-1.26,3.56-1.26C292.82,361.6,294.05,362.72,294.05,364.91 M293.19,367.93v-1.67h-3.03c-1.84,0-2.48,0.77-2.48,1.79
	c0,1.16,0.9,1.88,2.47,1.88C291.64,369.92,292.68,369.2,293.19,367.93"/>
<path class="st1" d="M296.26,369.48l0.4-0.68c0.68,0.58,1.89,1.07,3.2,1.07c1.87,0,2.62-0.66,2.62-1.67c0-2.59-5.89-0.68-5.89-4.17
	c0-1.34,1.12-2.44,3.37-2.44c1.12,0,2.35,0.34,3.05,0.87l-0.39,0.68c-0.75-0.55-1.72-0.8-2.67-0.8c-1.74,0-2.5,0.72-2.5,1.67
	c0,2.67,5.89,0.78,5.89,4.17c0,1.45-1.24,2.43-3.51,2.43C298.36,370.62,296.96,370.12,296.26,369.48"/>
<path class="st1" d="M310.12,369.99c-0.44,0.42-1.16,0.63-1.82,0.63c-1.56,0-2.42-0.92-2.42-2.42v-5.81h-1.64v-0.73h1.64v-1.94h0.85
	v1.94h2.83v0.73h-2.83v5.72c0,1.14,0.56,1.77,1.65,1.77c0.52,0,1.02-0.17,1.38-0.49L310.12,369.99z"/>
<polygon class="st1" points="326.87,358.63 326.87,370.55 326.16,370.55 318.03,360.2 318.03,370.55 317.17,370.55 317.17,358.63 
	317.9,358.63 326.01,368.99 326.01,358.63 "/>
<path class="st1" d="M338.32,366.31h-7.65c0.09,2.11,1.64,3.54,3.77,3.54c1.13,0,2.16-0.41,2.84-1.24l0.5,0.56
	c-0.79,0.95-2.01,1.44-3.35,1.44c-2.69,0-4.58-1.87-4.58-4.51c0-2.64,1.82-4.51,4.26-4.51c2.43,0,4.24,1.84,4.24,4.47
	C338.33,366.14,338.32,366.23,338.32,366.31 M330.69,365.65h6.81c-0.12-1.92-1.51-3.3-3.4-3.3
	C332.2,362.35,330.83,363.71,330.69,365.65"/>
<path class="st1" d="M349.81,366.11c0,2.66-1.89,4.51-4.4,4.51c-1.6,0-2.94-0.8-3.64-2.16v2.09h-0.82v-12.63h0.85v5.77
	c0.71-1.32,2.04-2.1,3.6-2.1C347.92,361.59,349.81,363.43,349.81,366.11 M348.96,366.11c0-2.23-1.55-3.74-3.59-3.74
	c-2.04,0-3.57,1.51-3.57,3.74c0,2.23,1.53,3.74,3.57,3.74C347.41,369.85,348.96,368.34,348.96,366.11"/>
<path class="st1" d="M356.65,361.6v0.83c-0.07,0-0.14-0.02-0.2-0.02c-1.97,0-3.15,1.31-3.15,3.51v4.63h-0.85v-8.89h0.82v1.94
	C353.81,362.31,354.98,361.6,356.65,361.6"/>
<path class="st1" d="M365.61,364.91v5.64h-0.82v-1.58c-0.56,1.02-1.65,1.65-3.2,1.65c-1.99,0-3.2-1.02-3.2-2.53
	c0-1.35,0.86-2.49,3.32-2.49h3.05v-0.72c0-1.65-0.9-2.54-2.64-2.54c-1.23,0-2.33,0.46-3.06,1.12l-0.43-0.61
	c0.88-0.79,2.18-1.26,3.56-1.26C364.38,361.6,365.61,362.72,365.61,364.91 M364.76,367.93v-1.67h-3.03c-1.84,0-2.48,0.77-2.48,1.79
	c0,1.16,0.9,1.88,2.47,1.88C363.21,369.92,364.25,369.2,364.76,367.93"/>
<path class="st1" d="M367.82,369.48l0.39-0.68c0.68,0.58,1.89,1.07,3.2,1.07c1.87,0,2.62-0.66,2.62-1.67c0-2.59-5.89-0.68-5.89-4.17
	c0-1.34,1.12-2.44,3.37-2.44c1.12,0,2.35,0.34,3.05,0.87l-0.39,0.68c-0.75-0.55-1.72-0.8-2.67-0.8c-1.74,0-2.5,0.72-2.5,1.67
	c0,2.67,5.89,0.78,5.89,4.17c0,1.45-1.24,2.43-3.51,2.43C369.92,370.62,368.52,370.12,367.82,369.48"/>
<polygon class="st1" points="380.44,365.8 378.12,367.91 378.12,370.55 377.27,370.55 377.27,357.92 378.12,357.92 378.12,366.86 
	383.81,361.67 384.9,361.67 381.07,365.26 385.28,370.55 384.22,370.55 "/>
<path class="st1" d="M393.7,364.91v5.64h-0.82v-1.58c-0.56,1.02-1.65,1.65-3.2,1.65c-1.99,0-3.2-1.02-3.2-2.53
	c0-1.35,0.85-2.49,3.32-2.49h3.05v-0.72c0-1.65-0.9-2.54-2.64-2.54c-1.23,0-2.33,0.46-3.07,1.12l-0.43-0.61
	c0.89-0.79,2.18-1.26,3.56-1.26C392.48,361.6,393.7,362.72,393.7,364.91 M392.85,367.93v-1.67h-3.03c-1.84,0-2.48,0.77-2.48,1.79
	c0,1.16,0.9,1.88,2.47,1.88C391.3,369.92,392.34,369.2,392.85,367.93"/>
<path class="st1" d="M401.62,358.63h4.71c3.78,0,6.33,2.48,6.33,5.96c0,3.47-2.56,5.96-6.33,5.96h-4.71V358.63z M406.27,369.77
	c3.37,0,5.53-2.15,5.53-5.18c0-3.03-2.16-5.18-5.53-5.18h-3.78v10.35H406.27z"/>
<path class="st1" d="M422.95,366.31h-7.64c0.08,2.11,1.63,3.54,3.76,3.54c1.12,0,2.16-0.41,2.84-1.24l0.5,0.56
	c-0.78,0.95-2.01,1.44-3.35,1.44c-2.69,0-4.58-1.87-4.58-4.51c0-2.64,1.82-4.51,4.26-4.51c2.43,0,4.24,1.84,4.24,4.47
	C422.97,366.14,422.95,366.23,422.95,366.31 M415.33,365.65h6.81c-0.12-1.92-1.51-3.3-3.4-3.3
	C416.84,362.35,415.46,363.71,415.33,365.65"/>
<polygon class="st1" points="432.73,361.66 428.71,370.55 427.84,370.55 423.84,361.66 424.74,361.66 428.29,369.62 431.86,361.66 
	"/>
<path class="st1" d="M441.96,366.31h-7.64c0.09,2.11,1.64,3.54,3.77,3.54c1.12,0,2.16-0.41,2.84-1.24l0.5,0.56
	c-0.78,0.95-2.01,1.44-3.35,1.44c-2.69,0-4.58-1.87-4.58-4.51c0-2.64,1.82-4.51,4.25-4.51c2.44,0,4.24,1.84,4.24,4.47
	C441.97,366.14,441.96,366.23,441.96,366.31 M434.33,365.65h6.81c-0.12-1.92-1.52-3.3-3.41-3.3
	C435.85,362.35,434.47,363.71,434.33,365.65"/>
<rect x="444.6" y="357.92" class="st1" width="0.85" height="12.63"/>
<path class="st1" d="M448.1,366.11c0-2.64,1.89-4.52,4.45-4.52c2.55,0,4.44,1.88,4.44,4.52c0,2.64-1.89,4.51-4.44,4.51
	C449.99,370.62,448.1,368.75,448.1,366.11 M456.13,366.11c0-2.23-1.53-3.74-3.57-3.74c-2.05,0-3.57,1.51-3.57,3.74
	c0,2.23,1.53,3.74,3.57,3.74C454.59,369.85,456.13,368.34,456.13,366.11"/>
<path class="st1" d="M468.51,366.11c0,2.68-1.89,4.51-4.39,4.51c-1.56,0-2.89-0.77-3.61-2.09v5.33h-0.85v-12.19h0.81v2.09
	c0.7-1.36,2.04-2.16,3.64-2.16C466.63,361.59,468.51,363.45,468.51,366.11 M467.67,366.11c0-2.23-1.55-3.74-3.59-3.74
	c-2.04,0-3.57,1.51-3.57,3.74c0,2.23,1.54,3.74,3.57,3.74C466.12,369.85,467.67,368.34,467.67,366.11"/>
<path class="st1" d="M485.77,365.36v5.19h-0.85v-5.13c0-2.01-1.03-3.06-2.78-3.06c-2.01,0-3.25,1.34-3.25,3.45v4.73h-0.85v-5.13
	c0-2.01-1.04-3.06-2.77-3.06c-2.01,0-3.25,1.34-3.25,3.45v4.73h-0.85v-8.88h0.82v1.9c0.58-1.24,1.79-1.97,3.4-1.97
	c1.6,0,2.77,0.73,3.25,2.14c0.58-1.29,1.87-2.14,3.59-2.14C484.37,361.6,485.77,362.87,485.77,365.36"/>
<path class="st1" d="M496.75,366.31h-7.65c0.09,2.11,1.64,3.54,3.77,3.54c1.13,0,2.16-0.41,2.84-1.24l0.5,0.56
	c-0.79,0.95-2.01,1.44-3.35,1.44c-2.69,0-4.58-1.87-4.58-4.51c0-2.64,1.82-4.51,4.26-4.51c2.43,0,4.24,1.84,4.24,4.47
	C496.77,366.14,496.75,366.23,496.75,366.31 M489.12,365.65h6.81c-0.12-1.92-1.51-3.3-3.4-3.3
	C490.64,362.35,489.26,363.71,489.12,365.65"/>
<path class="st1" d="M507.34,365.36v5.19h-0.85v-5.13c0-2.01-1.07-3.06-2.88-3.06c-2.09,0-3.37,1.34-3.37,3.45v4.73h-0.85v-8.88
	h0.82v1.92c0.6-1.24,1.84-1.99,3.52-1.99C505.89,361.6,507.34,362.87,507.34,365.36"/>
<path class="st1" d="M515.27,369.99c-0.44,0.42-1.16,0.63-1.82,0.63c-1.57,0-2.42-0.92-2.42-2.42v-5.81h-1.64v-0.73h1.64v-1.94h0.85
	v1.94h2.83v0.73h-2.83v5.72c0,1.14,0.56,1.77,1.65,1.77c0.53,0,1.02-0.17,1.38-0.49L515.27,369.99z"/>
<path class="st1" d="M522.22,358.63h4.71c3.78,0,6.33,2.48,6.33,5.96c0,3.47-2.55,5.96-6.33,5.96h-4.71V358.63z M526.87,369.77
	c3.37,0,5.53-2.15,5.53-5.18c0-3.03-2.16-5.18-5.53-5.18h-3.78v10.35H526.87z"/>
<path class="st1" d="M535.77,358.82c0-0.37,0.31-0.7,0.7-0.7c0.39,0,0.69,0.31,0.69,0.68c0,0.39-0.3,0.7-0.69,0.7
	C536.08,359.5,535.77,359.19,535.77,358.82 M536.05,361.67h0.85v8.88h-0.85V361.67z"/>
<path class="st1" d="M539.21,369.48l0.39-0.68c0.68,0.58,1.89,1.07,3.2,1.07c1.87,0,2.62-0.66,2.62-1.67c0-2.59-5.89-0.68-5.89-4.17
	c0-1.34,1.12-2.44,3.37-2.44c1.13,0,2.35,0.34,3.05,0.87l-0.39,0.68c-0.75-0.55-1.72-0.8-2.67-0.8c-1.74,0-2.5,0.72-2.5,1.67
	c0,2.67,5.89,0.78,5.89,4.17c0,1.45-1.24,2.43-3.51,2.43C541.31,370.62,539.91,370.12,539.21,369.48"/>
<path class="st1" d="M553.07,369.99c-0.44,0.42-1.16,0.63-1.82,0.63c-1.56,0-2.42-0.92-2.42-2.42v-5.81h-1.64v-0.73h1.64v-1.94h0.85
	v1.94h2.83v0.73h-2.83v5.72c0,1.14,0.56,1.77,1.65,1.77c0.53,0,1.02-0.17,1.38-0.49L553.07,369.99z"/>
<path class="st1" d="M559.61,361.6v0.83c-0.07,0-0.14-0.02-0.2-0.02c-1.98,0-3.15,1.31-3.15,3.51v4.63h-0.85v-8.89h0.82v1.94
	C556.77,362.31,557.95,361.6,559.61,361.6"/>
<path class="st1" d="M561.98,358.82c0-0.37,0.3-0.7,0.7-0.7c0.39,0,0.7,0.31,0.7,0.68c0,0.39-0.31,0.7-0.7,0.7
	C562.28,359.5,561.98,359.19,561.98,358.82 M562.25,361.67h0.85v8.88h-0.85V361.67z"/>
<path class="st1" d="M565.76,366.11c0-2.66,1.89-4.52,4.49-4.52c1.41,0,2.64,0.55,3.37,1.64l-0.63,0.46
	c-0.65-0.9-1.64-1.32-2.74-1.32c-2.09,0-3.63,1.49-3.63,3.74c0,2.24,1.53,3.74,3.63,3.74c1.11,0,2.09-0.42,2.74-1.33l0.63,0.46
	c-0.73,1.07-1.96,1.64-3.37,1.64C567.65,370.62,565.76,368.75,565.76,366.11"/>
<path class="st1" d="M580.59,369.99c-0.44,0.42-1.16,0.63-1.82,0.63c-1.56,0-2.42-0.92-2.42-2.42v-5.81h-1.63v-0.73h1.63v-1.94h0.85
	v1.94h2.83v0.73h-2.83v5.72c0,1.14,0.56,1.77,1.65,1.77c0.53,0,1.02-0.17,1.38-0.49L580.59,369.99z"/>
<path class="st0" d="M305.68,424.94L305.68,424.94c-175.43-46.71-171.22-116.23-100.15-161.8
	C122.86,309.1,121.43,375.87,305.68,424.94"/>
<path class="st1" d="M205.44,263.09c0.02,0.01,0.04,0.03,0.06,0.05c83.91-46.1,249.71-70.93,390.82-35.17l11.31-6.74
	C459.83,183.77,284.95,212.79,205.44,263.09"/>
<rect x="412.1" y="62.5" class="st2" width="41" height="33"/>
<rect x="276.69" y="62.5" class="st3" width="41" height="33"/>
<rect x="271.68" y="103" class="st4" width="113" height="44"/>
<text transform="matrix(1 0 0 1 271.6834 115.6138)" class="st5 st6 st7">11999A</text>
<rect x="404.17" y="103" class="st4" width="113" height="44"/>
<text transform="matrix(1 0 0 1 404.1684 115.6138)" class="st5 st6 st7">084872</text>
</svg>
